<?xml version="1.0" encoding="UTF-8"?>
<svg width="368px" height="368px" viewBox="0 0 368 368" version="1.1" xmlns="http://www.w3.org/2000/svg" xmlns:xlink="http://www.w3.org/1999/xlink">
    <title>Untitled</title>
    <g id="Page-1" stroke="none" stroke-width="1" fill="none" fill-rule="evenodd">
        <path d="M331.887035,36.7177751 C322.283506,49.8991673 270.113927,113.783139 211.511522,181.732685 C283.793356,245.067854 353.033282,309.736332 363.573173,332.619028 C302.892575,289.24904 244.133381,244.288106 192.690245,203.427596 C127.187518,278.536193 58.5334242,352.577705 34.8062397,363.506572 C80.2744559,299.890263 127.491281,238.385769 169.898696,185.209211 C87.8194427,119.207856 28.4554903,67.0613206 16.9853869,55.3372222 C-2.38467056,35.5382323 7.70768115,14.3539073 36.7843768,35.5382323 C50.4083696,45.4642258 118.197057,100.862799 188.656036,161.837334 C251.591408,83.9138773 300.748114,28.0130448 312.088045,16.9187852 C331.887035,-2.45127232 353.07136,7.6410794 331.887035,36.7177751 Z" id="Combined-Shape" fill="#FFFFFF"></path>
    </g>
</svg>